<svg xmlns="http://www.w3.org/2000/svg" viewBox="0 0 270.6285 86.0649"><defs><style>.cls-1,.cls-2,.cls-3,.cls-4,.cls-5,.cls-7{fill:none;stroke:#384486;stroke-miterlimit:3.8637;}.cls-1{stroke-width:2.3754px;}.cls-2{stroke-width:1.75px;}.cls-3{stroke-width:1.9435px;}.cls-4{stroke-width:1.7276px;}.cls-5{stroke-width:1.1997px;}.cls-6{fill:#384486;}.cls-7{stroke-width:0.4499px;}</style></defs><title>Central Credit Union of Illinois</title><g id="Layer_2" data-name="Layer 2"><g id="Foreground"><polyline class="cls-1" points="142.968 14.958 142.968 28.369 142.11 29.285 128.219 29.282 127.424 28.487 127.424 14.185 128.163 13.357 141.392 13.357"/><polyline class="cls-2" points="141.392 10.727 126.773 10.727 124.558 12.854 124.558 29.669 126.862 32.21 143.529 32.21 145.805 29.699 145.805 14.958"/><polyline class="cls-3" points="148.257 14.958 148.257 30.792 144.475 34.782 126.064 34.782 121.602 30.615 121.602 12.234 125.946 8.097 141.392 8.097"/><polyline class="cls-4" points="141.392 5.526 124.587 5.526 118.972 11.348 118.972 31.708 124.764 37.116 145.243 37.116 150.917 31.531 150.917 14.894"/><polyline class="cls-5" points="153.337 14.958 153.34 32.654 146.307 39.953 123.966 39.953 116.667 32.654 116.667 10.165 123.877 3.044 141.392 3.044"/><path class="cls-6" d="M3.1118,51.1821h9.7251v5.0567H5.4458v7.78h7.3911v4.668H3.501c-.6152,0-3.501-3.3-3.501-3.89v-9.336C0,53.5537,1.5948,53.0493,3.1118,51.1821Z"/><path class="cls-6" d="M93.5674,68.6855V51.1816h5.4458L99.02,63.63c1.1279,0,4.3569.039,5.4458,0V68.687Z"/><path class="cls-6" d="M45.9771,56.2388l-.0034-5.0572c.1557,0,6.0293-.0971,12.4472,0l.0039,5.0572c-.8169,0-2.7231.0781-3.89,0l-.0029,12.4467H49.4746s.1163-12.1811,0-12.4472C49.4746,56.2383,48.44,56.3018,45.9771,56.2388Z"/><path class="cls-6" d="M34.232,51.1821c3.3037,5.64,2.1367,4.084,5.0571,8.169v-8.169h5.4458V68.687l-7.2988-.0024c-1.3614-2.5284-3.6953-7.2935-3.6953-7.2935l.0024,7.2944-5.7354.0015V51.1821Z"/><rect class="cls-6" x="14.1538" y="51.1821" width="12.4483" height="5.0567"/><path class="cls-6" d="M25.4385,57.9634l-.0034,3.7217H19.9888a20.7515,20.7515,0,0,0,0,2.3339h6.6133v4.668H14.1538l.0039-10.7236Z"/><path class="cls-6" d="M92.1675,68.687l-9.5044.0015,1.12-4.895,1.6182-.002-1.375-4.25c-.4668,1.05-2.6533,7.7827-3.14,9.144l-5.3477.001c.291-.0981,5.5425-17.5049,5.45-17.5044h5.4463C86.43,51.1816,92.07,68.7827,92.1675,68.687Z"/><path class="cls-6" d="M115.4512,51.2837h9.7251v5.0571h-7.3911v7.78h7.3911v4.668H115.84c-.6153,0-3.501-3.2993-3.501-3.89V55.5625C112.3394,53.6553,113.9341,53.1509,115.4512,51.2837Z"/><path class="cls-6" d="M177.2954,56.2656l-.0029-5.0571c.1553,0,6.0293-.0972,12.4473,0l.0039,5.0571c-.8169,0-2.7232.0781-3.89,0L185.85,68.7124H180.793s.1167-12.1812,0-12.4473C180.793,56.2651,179.7593,56.3286,177.2954,56.2656Z"/><path class="cls-6" d="M170.5186,51.2114h5.4458c.063,6.7652-.2725,5.33,0,17.5054h-5.4458Z"/><rect class="cls-6" x="142.543" y="51.27" width="12.4482" height="5.0567"/><path class="cls-6" d="M153.8282,58.0513l-.0039,3.7216H148.378a20.7264,20.7264,0,0,0,0,2.334h6.6132v4.668H142.543l.0039-10.7236Z"/><path class="cls-6" d="M133.9952,57.729V56.4224H131.564V59.145h2.4312V57.354h6.0292v2.4717a33.8922,33.8922,0,0,1-2.4311,3.1118c.0273-.0273,3.2866,5.1929,3.5981,5.7378h-5.4458c-.3076,0-1.75-2.14-3.89-5.0571,0,1.0117-.0737,3.58.0039,5.0581h-5.4458V51.1714l10.6929,0s2.9174,3.1123,2.9174,3.2095v3.5361Z"/><path class="cls-6" d="M67.37,57.729V56.4224H64.939V59.145H67.37V57.354h6.0292v2.4717a33.8922,33.8922,0,0,1-2.4311,3.1118c.0273-.0273,3.2866,5.1929,3.5981,5.7378H69.1206c-.3076,0-1.75-2.14-3.89-5.0571,0,1.0117-.0737,3.58.0039,5.0581H59.7891V51.1714l10.6929,0s2.9174,3.1123,2.9174,3.2095v3.5361Z"/><path class="cls-6" d="M160.5342,59.1665v4.8784h3.647V56.6543h-3.647V59.229H156.4V51.2075h9.336c.6152,0,3.5009,3.2993,3.5009,3.89v9.3364c0,1.9082-1.5947,2.4116-3.1118,4.2788H156.4V59.1665Z"/><path class="cls-6" d="M219.3374,51.1352c3.3037,5.64,2.1368,4.084,5.0567,8.169v-8.169H229.84V68.6406l-7.2989-.0029c-1.3613-2.5278-3.6953-7.293-3.6953-7.293l.0025,7.2945-5.7354.0014V51.1352Z"/><path class="cls-6" d="M260.1255,51.1352c3.3037,5.64,2.1372,4.084,5.0572,8.169v-8.169h5.4458V68.6406l-7.2989-.0029c-1.3613-2.5278-3.6948-7.293-3.6948-7.293l.002,7.2945-5.7354.0014V51.1352Z"/><rect class="cls-6" x="231.4961" y="51.1352" width="5.3897" height="17.5069"/><path class="cls-6" d="M245.4639,63.7285h1.8008V56.3379h-3.6465v7.3906h2.0957v4.9107h-4.332C239.8648,66.772,238.27,66.27,238.27,64.36v-9.336c0-.59,2.8852-3.89,3.5-3.89h7.2442c.6152,0,3.501,3.2993,3.501,3.89V64.36c0,1.91-1.5953,2.4121-3.1123,4.2793h-3.8145Z"/><rect class="cls-6" x="117.691" y="75.9673" width="3.0976" height="10.0625"/><path class="cls-6" d="M121.6451,86.063V76.0024h3.13l.0035,7.1548c.6484,0,2.5043.0225,3.13,0V86.064Z"/><path class="cls-6" d="M128.542,86.063V76.0024h3.13l.0039,7.1548c.648,0,2.5039.0225,3.13,0V86.064Z"/><rect class="cls-6" x="135.6231" y="75.9673" width="3.0976" height="10.0625"/><path class="cls-6" d="M143.291,75.9678a35.4587,35.4587,0,0,0,2.9063,4.6948V75.9678h3.13v10.061l-4.1948-.0015c-.7823-1.4531-2.1236-4.1919-2.1236-4.1919l.001,4.1924-3.2964.001V75.9678Z"/><path class="cls-6" d="M164.5479,76.0142l5.9619.0068v2.8882c-1.1436.0229-4.396,0-7.4141,0v-.69C163.9536,76.9849,163.9922,76.0132,164.5479,76.0142Z"/><path class="cls-6" d="M163.1407,79.6865l5.521-.0014a23.16,23.16,0,0,1,2.4516,2.1015v2.0371a13.4584,13.4584,0,0,1-2.0688,2.2412h-5.9488V83.2124h4.7676a3.8546,3.8546,0,0,0,0-1.2222h-2.8174c-.6933,0-.6718-.519-1.9072-1.68Z"/><rect class="cls-6" x="159.2452" y="75.9673" width="3.0976" height="10.0625"/><rect class="cls-6" x="107.2456" y="76.0459" width="7.1548" height="2.9062"/><path class="cls-6" d="M113.732,79.9438v2.1338l-3.1324.0049c.0284-.0049.0069,3.9824.0069,3.9824h-3.3623l.0039-6.1211Z"/><path class="cls-6" d="M102.4639,83.2056h1.0483V78.9575H101.416v4.2481h1.36l-.1875,2.8222h-2.458c-.8716-1.0732-1.7886-1.3613-1.7886-2.4594V78.2026a6.25,6.25,0,0,1,2.0122-2.2358h4.1636a6.25,6.25,0,0,1,2.0122,2.2358v5.3658c0,1.0981-.917,1.3862-1.7886,2.4594h-2.34Z"/><path class="cls-6" d="M154.2764,83.2056h1.1V78.9575H153.28v4.2481h1.2461v2.8222h-2.5312c-.8721-1.0732-1.7886-1.3613-1.7886-2.4594V78.2026a6.25,6.25,0,0,1,2.0122-2.2358h4.1631a6.2454,6.2454,0,0,1,2.0122,2.2358v5.3658c0,1.0981-.9165,1.3862-1.7886,2.4594h-2.2666Z"/><path class="cls-6" d="M202.959,54.7314v9.75h4v-9.875l-.001-3.4717H211.78c.0488,0,0,13.128,0,13.128a27.3108,27.3108,0,0,1-2.918,4.376h-8.0214a42.411,42.411,0,0,1-3.0635-4.23s-.0689-13.274,0-13.274h5.1816Z"/><polyline class="cls-7" points="141.401 0.473 122.578 0.473 113.919 9.309 113.919 33.511 123.139 42.583 147.104 42.583 155.94 33.747 155.951 14.958"/><path class="cls-6" d="M144.0874,2.2739a7.092,7.092,0,0,1,10.3736-.0371Z"/><path class="cls-6" d="M152.3047,13.5146a7.1113,7.1113,0,0,1-6.0224.002l-.003.0073Z"/><path class="cls-6" d="M142.628,4.6577a7.0882,7.0882,0,0,1,1.0678-1.9238l11.1631-.021.03.0239a7.0712,7.0712,0,0,1,1.063,1.9136Z"/><path class="cls-6" d="M142.1993,7.0923a7.1168,7.1168,0,0,1,.1562-1.4878l13.873.0063a7.1175,7.1175,0,0,1,.1553,1.4815Z"/><path class="cls-6" d="M156.2876,8.2637a7.0717,7.0717,0,0,1-.3008,1.1743l-13.39.0014a7.0313,7.0313,0,0,1-.3008-1.1752Z"/><path class="cls-6" d="M155.1963,11.022a7.1512,7.1512,0,0,1-.5263.6933l-10.7549.0025c5.2861,0,.0112.0132.0112.0132a7.0981,7.0981,0,0,1-.5381-.7066Z"/></g></g></svg>